<svg width="203" height="203" viewBox="0 0 203 203" fill="none" xmlns="http://www.w3.org/2000/svg">
<path d="M4 44C4 21.9086 21.9086 4 44 4H159C181.091 4 199 21.9086 199 44V159C199 181.091 181.091 199 159 199H44C21.9086 199 4 181.091 4 159V44Z" fill="white"/>
<path d="M90 70C90 83.8071 78.8071 95 65 95C51.1929 95 40 83.8071 40 70C40 56.1929 51.1929 45 65 45C78.8071 45 90 56.1929 90 70Z" fill="white"/>
<path d="M160 70C160 83.8071 148.807 95 135 95C121.193 95 110 83.8071 110 70C110 56.1929 121.193 45 135 45C148.807 45 160 56.1929 160 70Z" fill="white"/>
<path id="smile" d= "M36 157V157C83.4319 184.405 144.291 162.916 164.5 112V112M44 199H159C181.091 199 199 181.091 199 159V44C199 21.9086 181.091 4 159 4H44C21.9086 4 4 21.9086 4 44V159C4 181.091 21.9086 199 44 199ZM90 70C90 83.8071 78.8071 95 65 95C51.1929 95 40 83.8071 40 70C40 56.1929 51.1929 45 65 45C78.8071 45 90 56.1929 90 70ZM160 70C160 83.8071 148.807 95 135 95C121.193 95 110 83.8071 110 70C110 56.1929 121.193 45 135 45C148.807 45 160 56.1929 160 70Z" stroke="black" stroke-width="8"/>
</svg>
